<mxfile host="app.diagrams.net" agent="Mozilla/5.0 (Windows NT 10.0; Win64; x64) AppleWebKit/537.36 (KHTML, like Gecko) Chrome/136.0.0.0 Safari/537.36 Edg/136.0.0.0" version="26.2.9">
  <diagram name="Page-1" id="E1j6j_1OJSd3slHDF1Ss">
    <mxGraphModel dx="1420" dy="898" grid="0" gridSize="10" guides="1" tooltips="1" connect="1" arrows="1" fold="1" page="0" pageScale="1" pageWidth="850" pageHeight="1100" math="0" shadow="0">
      <root>
        <mxCell id="0" />
        <mxCell id="1" parent="0" />
        <mxCell id="Q5Jn8IrLwpDKY94yBc7_-3" value="Màn hình Chính" style="whiteSpace=wrap;html=1;aspect=fixed;" vertex="1" parent="1">
          <mxGeometry x="80" y="-353" width="80" height="80" as="geometry" />
        </mxCell>
        <mxCell id="Q5Jn8IrLwpDKY94yBc7_-4" value="Màn hình Game" style="rounded=0;whiteSpace=wrap;html=1;" vertex="1" parent="1">
          <mxGeometry x="-170" y="-177" width="120" height="60" as="geometry" />
        </mxCell>
        <mxCell id="Q5Jn8IrLwpDKY94yBc7_-5" value="Màn hình Cấu hình" style="rounded=0;whiteSpace=wrap;html=1;" vertex="1" parent="1">
          <mxGeometry x="-170" y="-294" width="120" height="60" as="geometry" />
        </mxCell>
      </root>
    </mxGraphModel>
  </diagram>
</mxfile>
